<?xml version="1.0" encoding="UTF-8" standalone="no"?>
<!DOCTYPE svg PUBLIC "-//W3C//DTD SVG 1.1//EN"
 "http://www.w3.org/Graphics/SVG/1.1/DTD/svg11.dtd">
<!-- Generated by graphviz version 2.40.1 (20161225.0304)
 -->
<!-- Title: ./counter; 235 samples Pages: 1 -->
<svg width="100%" height="100%"
  xmlns="http://www.w3.org/2000/svg" xmlns:xlink="http://www.w3.org/1999/xlink">
<script type="text/ecmascript"><![CDATA[
// SVGPan
// http://www.cyberz.org/blog/2009/12/08/svgpan-a-javascript-svg-panzoomdrag-library/
// Local modification: if(true || ...) below to force panning, never moving.

/**
 *  SVGPan library 1.2
 * ====================
 *
 * Given an unique existing element with id "viewport", including the
 * the library into any SVG adds the following capabilities:
 *
 *  - Mouse panning
 *  - Mouse zooming (using the wheel)
 *  - Object dargging
 *
 * Known issues:
 *
 *  - Zooming (while panning) on Safari has still some issues
 *
 * Releases:
 *
 * 1.2, Sat Mar 20 08:42:50 GMT 2010, Zeng Xiaohui
 *	Fixed a bug with browser mouse handler interaction
 *
 * 1.1, Wed Feb  3 17:39:33 GMT 2010, Zeng Xiaohui
 *	Updated the zoom code to support the mouse wheel on Safari/Chrome
 *
 * 1.0, Andrea Leofreddi
 *	First release
 *
 * This code is licensed under the following BSD license:
 *
 * Copyright 2009-2010 Andrea Leofreddi <a.leofreddi@itcharm.com>. All rights reserved.
 *
 * Redistribution and use in source and binary forms, with or without modification, are
 * permitted provided that the following conditions are met:
 *
 *    1. Redistributions of source code must retain the above copyright notice, this list of
 *       conditions and the following disclaimer.
 *
 *    2. Redistributions in binary form must reproduce the above copyright notice, this list
 *       of conditions and the following disclaimer in the documentation and/or other materials
 *       provided with the distribution.
 *
 * THIS SOFTWARE IS PROVIDED BY Andrea Leofreddi ``AS IS'' AND ANY EXPRESS OR IMPLIED
 * WARRANTIES, INCLUDING, BUT NOT LIMITED TO, THE IMPLIED WARRANTIES OF MERCHANTABILITY AND
 * FITNESS FOR A PARTICULAR PURPOSE ARE DISCLAIMED. IN NO EVENT SHALL Andrea Leofreddi OR
 * CONTRIBUTORS BE LIABLE FOR ANY DIRECT, INDIRECT, INCIDENTAL, SPECIAL, EXEMPLARY, OR
 * CONSEQUENTIAL DAMAGES (INCLUDING, BUT NOT LIMITED TO, PROCUREMENT OF SUBSTITUTE GOODS OR
 * SERVICES; LOSS OF USE, DATA, OR PROFITS; OR BUSINESS INTERRUPTION) HOWEVER CAUSED AND ON
 * ANY THEORY OF LIABILITY, WHETHER IN CONTRACT, STRICT LIABILITY, OR TORT (INCLUDING
 * NEGLIGENCE OR OTHERWISE) ARISING IN ANY WAY OUT OF THE USE OF THIS SOFTWARE, EVEN IF
 * ADVISED OF THE POSSIBILITY OF SUCH DAMAGE.
 *
 * The views and conclusions contained in the software and documentation are those of the
 * authors and should not be interpreted as representing official policies, either expressed
 * or implied, of Andrea Leofreddi.
 */

var root = document.documentElement;

var state = 'none', stateTarget, stateOrigin, stateTf;

setupHandlers(root);

/**
 * Register handlers
 */
function setupHandlers(root){
	setAttributes(root, {
		"onmouseup" : "add(evt)",
		"onmousedown" : "handleMouseDown(evt)",
		"onmousemove" : "handleMouseMove(evt)",
		"onmouseup" : "handleMouseUp(evt)",
		//"onmouseout" : "handleMouseUp(evt)", // Decomment this to stop the pan functionality when dragging out of the SVG element
	});

	if(navigator.userAgent.toLowerCase().indexOf('webkit') >= 0)
		window.addEventListener('mousewheel', handleMouseWheel, false); // Chrome/Safari
	else
		window.addEventListener('DOMMouseScroll', handleMouseWheel, false); // Others

	var g = svgDoc.getElementById("svg");
	g.width = "100%";
	g.height = "100%";
}

/**
 * Instance an SVGPoint object with given event coordinates.
 */
function getEventPoint(evt) {
	var p = root.createSVGPoint();

	p.x = evt.clientX;
	p.y = evt.clientY;

	return p;
}

/**
 * Sets the current transform matrix of an element.
 */
function setCTM(element, matrix) {
	var s = "matrix(" + matrix.a + "," + matrix.b + "," + matrix.c + "," + matrix.d + "," + matrix.e + "," + matrix.f + ")";

	element.setAttribute("transform", s);
}

/**
 * Dumps a matrix to a string (useful for debug).
 */
function dumpMatrix(matrix) {
	var s = "[ " + matrix.a + ", " + matrix.c + ", " + matrix.e + "\n  " + matrix.b + ", " + matrix.d + ", " + matrix.f + "\n  0, 0, 1 ]";

	return s;
}

/**
 * Sets attributes of an element.
 */
function setAttributes(element, attributes){
	for (i in attributes)
		element.setAttributeNS(null, i, attributes[i]);
}

/**
 * Handle mouse move event.
 */
function handleMouseWheel(evt) {
	if(evt.preventDefault)
		evt.preventDefault();

	evt.returnValue = false;

	var svgDoc = evt.target.ownerDocument;

	var delta;

	if(evt.wheelDelta)
		delta = evt.wheelDelta / 3600; // Chrome/Safari
	else
		delta = evt.detail / -90; // Mozilla

	var z = 1 + delta; // Zoom factor: 0.9/1.1

	var g = svgDoc.getElementById("viewport");

	var p = getEventPoint(evt);

	p = p.matrixTransform(g.getCTM().inverse());

	// Compute new scale matrix in current mouse position
	var k = root.createSVGMatrix().translate(p.x, p.y).scale(z).translate(-p.x, -p.y);

        setCTM(g, g.getCTM().multiply(k));

	stateTf = stateTf.multiply(k.inverse());
}

/**
 * Handle mouse move event.
 */
function handleMouseMove(evt) {
	if(evt.preventDefault)
		evt.preventDefault();

	evt.returnValue = false;

	var svgDoc = evt.target.ownerDocument;

	var g = svgDoc.getElementById("viewport");

	if(state == 'pan') {
		// Pan mode
		var p = getEventPoint(evt).matrixTransform(stateTf);

		setCTM(g, stateTf.inverse().translate(p.x - stateOrigin.x, p.y - stateOrigin.y));
	} else if(state == 'move') {
		// Move mode
		var p = getEventPoint(evt).matrixTransform(g.getCTM().inverse());

		setCTM(stateTarget, root.createSVGMatrix().translate(p.x - stateOrigin.x, p.y - stateOrigin.y).multiply(g.getCTM().inverse()).multiply(stateTarget.getCTM()));

		stateOrigin = p;
	}
}

/**
 * Handle click event.
 */
function handleMouseDown(evt) {
	if(evt.preventDefault)
		evt.preventDefault();

	evt.returnValue = false;

	var svgDoc = evt.target.ownerDocument;

	var g = svgDoc.getElementById("viewport");

	if(true || evt.target.tagName == "svg") {
		// Pan mode
		state = 'pan';

		stateTf = g.getCTM().inverse();

		stateOrigin = getEventPoint(evt).matrixTransform(stateTf);
	} else {
		// Move mode
		state = 'move';

		stateTarget = evt.target;

		stateTf = g.getCTM().inverse();

		stateOrigin = getEventPoint(evt).matrixTransform(stateTf);
	}
}

/**
 * Handle mouse button release event.
 */
function handleMouseUp(evt) {
	if(evt.preventDefault)
		evt.preventDefault();

	evt.returnValue = false;

	var svgDoc = evt.target.ownerDocument;

	if(state == 'pan' || state == 'move') {
		// Quit pan mode
		state = '';
	}
}

]]></script>
<g id="viewport" transform="translate(0,0)">
<g id="viewport" class="graph" transform="scale(1 1) rotate(0) translate(4 1133)">
<title>./counter; 235 samples</title>
<polygon fill="#ffffff" stroke="transparent" points="-4,4 -4,-1133 981,-1133 981,4 -4,4"/>
<!-- Legend -->
<g id="node1" class="node">
<title>Legend</title>
<text text-anchor="start" x="96" y="-1105.8" font-family="Times,serif" font-size="24.00" fill="#000000">./counter</text>
<text text-anchor="start" x="96" y="-1079.8" font-family="Times,serif" font-size="24.00" fill="#000000">Total samples: 235</text>
<text text-anchor="start" x="96" y="-1053.8" font-family="Times,serif" font-size="24.00" fill="#000000">Focusing on: 235</text>
<text text-anchor="start" x="96" y="-1027.8" font-family="Times,serif" font-size="24.00" fill="#000000">Dropped nodes with &lt;= 1 abs(samples)</text>
<text text-anchor="start" x="96" y="-1001.8" font-family="Times,serif" font-size="24.00" fill="#000000">Dropped edges with &lt;= 0 samples</text>
</g>
<!-- N1 -->
<g id="node2" class="node">
<title>N1</title>
<polygon fill="none" stroke="#000000" points="567.5,-1077.5 498.5,-1077.5 498.5,-1042.5 567.5,-1042.5 567.5,-1077.5"/>
<text text-anchor="middle" x="533" y="-1067.1" font-family="Times,serif" font-size="8.00" fill="#000000">__GI___clone</text>
<text text-anchor="end" x="559.5" y="-1058.1" font-family="Times,serif" font-size="8.00" fill="#000000">0 (0.0%)</text>
<text text-anchor="end" x="559.5" y="-1049.1" font-family="Times,serif" font-size="8.00" fill="#000000">of 235 (100.0%)</text>
</g>
<!-- N3 -->
<g id="node4" class="node">
<title>N3</title>
<polygon fill="none" stroke="#000000" points="567.5,-940 498.5,-940 498.5,-905 567.5,-905 567.5,-940"/>
<text text-anchor="middle" x="533" y="-929.6" font-family="Times,serif" font-size="8.00" fill="#000000">start_thread</text>
<text text-anchor="end" x="559.5" y="-920.6" font-family="Times,serif" font-size="8.00" fill="#000000">0 (0.0%)</text>
<text text-anchor="end" x="559.5" y="-911.6" font-family="Times,serif" font-size="8.00" fill="#000000">of 235 (100.0%)</text>
</g>
<!-- N1&#45;&gt;N3 -->
<g id="edge2" class="edge">
<title>N1&#45;&gt;N3</title>
<path fill="none" stroke="#000000" stroke-width="2" d="M533,-1042.3058C533,-1018.998 533,-977.7543 533,-950.2699"/>
<polygon fill="#000000" stroke="#000000" stroke-width="2" points="536.5001,-950.1263 533,-940.1263 529.5001,-950.1264 536.5001,-950.1263"/>
<text text-anchor="middle" x="543.5" y="-961.8" font-family="Times,serif" font-size="14.00" fill="#000000">235</text>
</g>
<!-- N2 -->
<g id="node3" class="node">
<title>N2</title>
<polygon fill="none" stroke="#000000" points="586.5,-854 479.5,-854 479.5,-801 586.5,-801 586.5,-854"/>
<text text-anchor="middle" x="533" y="-839.12" font-family="Times,serif" font-size="13.60" fill="#000000">run_thread</text>
<text text-anchor="end" x="578.5" y="-824.12" font-family="Times,serif" font-size="13.60" fill="#000000">3 (1.3%)</text>
<text text-anchor="end" x="578.5" y="-809.12" font-family="Times,serif" font-size="13.60" fill="#000000">of 235 (100.0%)</text>
</g>
<!-- N4 -->
<g id="node5" class="node">
<title>N4</title>
<polygon fill="none" stroke="#000000" points="691,-750 375,-750 375,-607 691,-607 691,-750"/>
<text text-anchor="middle" x="533" y="-713.6" font-family="Times,serif" font-size="40.50" fill="#000000">ponyint_actor_run</text>
<text text-anchor="end" x="683" y="-668.6" font-family="Times,serif" font-size="40.50" fill="#000000">99 (42.1%)</text>
<text text-anchor="end" x="683" y="-623.6" font-family="Times,serif" font-size="40.50" fill="#000000">of 226 (96.2%)</text>
</g>
<!-- N2&#45;&gt;N4 -->
<g id="edge3" class="edge">
<title>N2&#45;&gt;N4</title>
<path fill="none" stroke="#000000" stroke-width="2" d="M533,-800.8618C533,-789.2998 533,-775.0708 533,-760.4552"/>
<polygon fill="#000000" stroke="#000000" stroke-width="2" points="536.5001,-760.3029 533,-750.3029 529.5001,-760.303 536.5001,-760.3029"/>
<text text-anchor="middle" x="543.5" y="-771.8" font-family="Times,serif" font-size="14.00" fill="#000000">226</text>
</g>
<!-- N15 -->
<g id="node16" class="node">
<title>N15</title>
<polygon fill="none" stroke="#000000" points="841,-705 709,-705 709,-652 841,-652 841,-705"/>
<text text-anchor="middle" x="775" y="-690.12" font-family="Times,serif" font-size="13.60" fill="#000000">ponyint_mpmcq_pop</text>
<text text-anchor="end" x="833" y="-675.12" font-family="Times,serif" font-size="13.60" fill="#000000">3 (1.3%)</text>
<text text-anchor="end" x="833" y="-660.12" font-family="Times,serif" font-size="13.60" fill="#000000">of 4 (1.7%)</text>
</g>
<!-- N2&#45;&gt;N15 -->
<g id="edge14" class="edge">
<title>N2&#45;&gt;N15</title>
<path fill="none" stroke="#000000" d="M586.5155,-807.9018C620.5058,-794.2169 664.6024,-774.1132 700,-750 715.66,-739.3323 731.1298,-725.3392 743.9151,-712.5629"/>
<polygon fill="#000000" stroke="#000000" points="746.6154,-714.8079 751.1137,-705.2154 741.6153,-709.909 746.6154,-714.8079"/>
<text text-anchor="middle" x="673.5" y="-771.8" font-family="Times,serif" font-size="14.00" fill="#000000">4</text>
</g>
<!-- N3&#45;&gt;N2 -->
<g id="edge1" class="edge">
<title>N3&#45;&gt;N2</title>
<path fill="none" stroke="#000000" stroke-width="2" d="M533,-904.6312C533,-893.3239 533,-878.2867 533,-864.4937"/>
<polygon fill="#000000" stroke="#000000" stroke-width="2" points="536.5001,-864.271 533,-854.271 529.5001,-864.271 536.5001,-864.271"/>
<text text-anchor="middle" x="543.5" y="-875.8" font-family="Times,serif" font-size="14.00" fill="#000000">235</text>
</g>
<!-- N5 -->
<g id="node6" class="node">
<title>N5</title>
<polygon fill="none" stroke="#000000" points="565.5,-532 500.5,-532 500.5,-497 565.5,-497 565.5,-532"/>
<text text-anchor="middle" x="533" y="-521.6" font-family="Times,serif" font-size="8.00" fill="#000000">Main_Dispatch</text>
<text text-anchor="end" x="557.5" y="-512.6" font-family="Times,serif" font-size="8.00" fill="#000000">0 (0.0%)</text>
<text text-anchor="end" x="557.5" y="-503.6" font-family="Times,serif" font-size="8.00" fill="#000000">of 73 (31.1%)</text>
</g>
<!-- N4&#45;&gt;N5 -->
<g id="edge5" class="edge">
<title>N4&#45;&gt;N5</title>
<path fill="none" stroke="#000000" stroke-width="1.8638" d="M533,-606.5672C533,-583.7603 533,-559.8984 533,-542.1834"/>
<polygon fill="#000000" stroke="#000000" stroke-width="1.8638" points="536.5001,-542.012 533,-532.012 529.5001,-542.012 536.5001,-542.012"/>
<text text-anchor="middle" x="540" y="-577.8" font-family="Times,serif" font-size="14.00" fill="#000000">73</text>
</g>
<!-- N7 -->
<g id="node8" class="node">
<title>N7</title>
<polygon fill="none" stroke="#000000" points="619.5,-315 446.5,-315 446.5,-214 619.5,-214 619.5,-315"/>
<text text-anchor="middle" x="533" y="-288.76" font-family="Times,serif" font-size="27.80" fill="#000000">pony_sendv</text>
<text text-anchor="end" x="611.5" y="-257.76" font-family="Times,serif" font-size="27.80" fill="#000000">37 (15.7%)</text>
<text text-anchor="end" x="611.5" y="-226.76" font-family="Times,serif" font-size="27.80" fill="#000000">of 64 (27.2%)</text>
</g>
<!-- N4&#45;&gt;N7 -->
<g id="edge17" class="edge">
<title>N4&#45;&gt;N7</title>
<path fill="none" stroke="#000000" d="M691.1966,-607.6868C743.0375,-583.7351 788.4574,-561.5944 792,-556 819.5912,-512.4284 815.0828,-484.4909 789,-440 752.784,-378.2244 685.1837,-333.2929 628.5416,-304.3644"/>
<polygon fill="#000000" stroke="#000000" points="630.0598,-301.2104 619.5515,-299.8589 626.9234,-307.4684 630.0598,-301.2104"/>
<text text-anchor="middle" x="800.5" y="-443.8" font-family="Times,serif" font-size="14.00" fill="#000000">3</text>
</g>
<!-- N9 -->
<g id="node10" class="node">
<title>N9</title>
<polygon fill="none" stroke="#000000" points="182,-556 0,-556 0,-473 182,-473 182,-556"/>
<text text-anchor="middle" x="91" y="-533.68" font-family="Times,serif" font-size="22.90" fill="#000000">Counter_Dispatch</text>
<text text-anchor="end" x="174" y="-508.68" font-family="Times,serif" font-size="22.90" fill="#000000">21 (8.9%)</text>
<text text-anchor="end" x="174" y="-483.68" font-family="Times,serif" font-size="22.90" fill="#000000">of 24 (10.2%)</text>
</g>
<!-- N4&#45;&gt;N9 -->
<g id="edge8" class="edge">
<title>N4&#45;&gt;N9</title>
<path fill="none" stroke="#000000" d="M374.9041,-623.7079C319.5607,-604.0677 256.8954,-581.3144 191.8278,-556.2803"/>
<polygon fill="#000000" stroke="#000000" points="192.8004,-552.9042 182.2108,-552.5703 190.2809,-559.4351 192.8004,-552.9042"/>
<text text-anchor="middle" x="282" y="-577.8" font-family="Times,serif" font-size="14.00" fill="#000000">24</text>
</g>
<!-- N10 -->
<g id="node11" class="node">
<title>N10</title>
<polygon fill="none" stroke="#000000" points="782.5,-550 583.5,-550 583.5,-479 782.5,-479 782.5,-550"/>
<text text-anchor="middle" x="683" y="-530.96" font-family="Times,serif" font-size="18.80" fill="#000000">ponyint_messageq_pop</text>
<text text-anchor="end" x="774.5" y="-509.96" font-family="Times,serif" font-size="18.80" fill="#000000">11 (4.7%)</text>
<text text-anchor="end" x="774.5" y="-488.96" font-family="Times,serif" font-size="18.80" fill="#000000">of 17 (7.2%)</text>
</g>
<!-- N4&#45;&gt;N10 -->
<g id="edge9" class="edge">
<title>N4&#45;&gt;N10</title>
<path fill="none" stroke="#000000" d="M598.7922,-606.5672C613.9415,-590.0039 629.5997,-572.8843 643.2438,-557.9668"/>
<polygon fill="#000000" stroke="#000000" points="646.0154,-560.1224 650.1818,-550.3812 640.85,-555.398 646.0154,-560.1224"/>
<text text-anchor="middle" x="632" y="-577.8" font-family="Times,serif" font-size="14.00" fill="#000000">17</text>
</g>
<!-- N14 -->
<g id="node15" class="node">
<title>N14</title>
<polygon fill="none" stroke="#000000" points="482,-535.5 334,-535.5 334,-493.5 482,-493.5 482,-535.5"/>
<text text-anchor="middle" x="408" y="-519.26" font-family="Times,serif" font-size="15.30" fill="#000000">ponyint_heap_startgc</text>
<text text-anchor="end" x="474" y="-502.26" font-family="Times,serif" font-size="15.30" fill="#000000">5 (2.1%)</text>
</g>
<!-- N4&#45;&gt;N14 -->
<g id="edge12" class="edge">
<title>N4&#45;&gt;N14</title>
<path fill="none" stroke="#000000" d="M478.1732,-606.5672C461.2613,-584.3788 443.5885,-561.1921 430.209,-543.6383"/>
<polygon fill="#000000" stroke="#000000" points="432.8536,-541.3341 424.008,-535.5025 427.2863,-545.5774 432.8536,-541.3341"/>
<text text-anchor="middle" x="466.5" y="-577.8" font-family="Times,serif" font-size="14.00" fill="#000000">5</text>
</g>
<!-- N17 -->
<g id="node18" class="node">
<title>N17</title>
<polygon fill="none" stroke="#000000" points="316,-536.5 200,-536.5 200,-492.5 316,-492.5 316,-536.5"/>
<text text-anchor="middle" x="258" y="-523.46" font-family="Times,serif" font-size="11.30" fill="#000000">ponyint_cycle_block</text>
<text text-anchor="end" x="308" y="-511.46" font-family="Times,serif" font-size="11.30" fill="#000000">1 (0.4%)</text>
<text text-anchor="end" x="308" y="-499.46" font-family="Times,serif" font-size="11.30" fill="#000000">of 3 (1.3%)</text>
</g>
<!-- N4&#45;&gt;N17 -->
<g id="edge15" class="edge">
<title>N4&#45;&gt;N17</title>
<path fill="none" stroke="#000000" d="M410.3706,-606.8909C382.2504,-590.3004 352.5314,-572.6309 325,-556 317.5924,-551.5253 309.7553,-546.7284 302.153,-542.0417"/>
<polygon fill="#000000" stroke="#000000" points="303.7228,-538.8974 293.3764,-536.6164 300.0422,-544.8516 303.7228,-538.8974"/>
<text text-anchor="middle" x="380.5" y="-577.8" font-family="Times,serif" font-size="14.00" fill="#000000">3</text>
</g>
<!-- N6 -->
<g id="node7" class="node">
<title>N6</title>
<polygon fill="none" stroke="#000000" points="602,-422 464,-422 464,-366 602,-366 602,-422"/>
<text text-anchor="middle" x="533" y="-406.4" font-family="Times,serif" font-size="14.50" fill="#000000">Main_tag_create_oo</text>
<text text-anchor="end" x="594" y="-390.4" font-family="Times,serif" font-size="14.50" fill="#000000">4 (1.7%)</text>
<text text-anchor="end" x="594" y="-374.4" font-family="Times,serif" font-size="14.50" fill="#000000">of 73 (31.1%)</text>
</g>
<!-- N5&#45;&gt;N6 -->
<g id="edge4" class="edge">
<title>N5&#45;&gt;N6</title>
<path fill="none" stroke="#000000" stroke-width="1.8638" d="M533,-496.9783C533,-480.1498 533,-454.1585 533,-432.499"/>
<polygon fill="#000000" stroke="#000000" stroke-width="1.8638" points="536.5001,-432.2733 533,-422.2733 529.5001,-432.2733 536.5001,-432.2733"/>
<text text-anchor="middle" x="540" y="-443.8" font-family="Times,serif" font-size="14.00" fill="#000000">73</text>
</g>
<!-- N6&#45;&gt;N7 -->
<g id="edge6" class="edge">
<title>N6&#45;&gt;N7</title>
<path fill="none" stroke="#000000" stroke-width="1.5574" d="M533,-365.9004C533,-353.9884 533,-339.6087 533,-325.4702"/>
<polygon fill="#000000" stroke="#000000" stroke-width="1.5574" points="536.5001,-325.2564 533,-315.2565 529.5001,-325.2565 536.5001,-325.2564"/>
<text text-anchor="middle" x="540" y="-336.8" font-family="Times,serif" font-size="14.00" fill="#000000">61</text>
</g>
<!-- N12 -->
<g id="node13" class="node">
<title>N12</title>
<polygon fill="none" stroke="#000000" points="344,-282 276,-282 276,-247 344,-247 344,-282"/>
<text text-anchor="middle" x="310" y="-271.6" font-family="Times,serif" font-size="8.00" fill="#000000">pony_alloc_msg</text>
<text text-anchor="end" x="336" y="-262.6" font-family="Times,serif" font-size="8.00" fill="#000000">0 (0.0%)</text>
<text text-anchor="end" x="336" y="-253.6" font-family="Times,serif" font-size="8.00" fill="#000000">of 7 (3.0%)</text>
</g>
<!-- N6&#45;&gt;N12 -->
<g id="edge13" class="edge">
<title>N6&#45;&gt;N12</title>
<path fill="none" stroke="#000000" d="M484.6123,-365.9004C443.9358,-342.2788 386.55,-308.9539 348.8273,-287.0477"/>
<polygon fill="#000000" stroke="#000000" points="350.5579,-284.0054 340.1527,-282.0102 347.0426,-290.0587 350.5579,-284.0054"/>
<text text-anchor="middle" x="451.5" y="-336.8" font-family="Times,serif" font-size="14.00" fill="#000000">5</text>
</g>
<!-- N8 -->
<g id="node9" class="node">
<title>N8</title>
<polygon fill="none" stroke="#000000" points="666,-163 400,-163 400,-101 666,-101 666,-163"/>
<text text-anchor="middle" x="533" y="-139.08" font-family="Times,serif" font-size="24.90" fill="#000000">ponyint_messageq_push</text>
<text text-anchor="end" x="658" y="-112.08" font-family="Times,serif" font-size="24.90" fill="#000000">27 (11.5%)</text>
</g>
<!-- N7&#45;&gt;N8 -->
<g id="edge7" class="edge">
<title>N7&#45;&gt;N8</title>
<path fill="none" stroke="#000000" d="M533,-213.651C533,-200.4234 533,-186.3286 533,-173.6383"/>
<polygon fill="#000000" stroke="#000000" points="536.5001,-173.3586 533,-163.3587 529.5001,-173.3587 536.5001,-173.3586"/>
<text text-anchor="middle" x="540" y="-184.8" font-family="Times,serif" font-size="14.00" fill="#000000">27</text>
</g>
<!-- N16 -->
<g id="node17" class="node">
<title>N16</title>
<polygon fill="none" stroke="#000000" points="170,-413 12,-413 12,-375 170,-375 170,-413"/>
<text text-anchor="middle" x="91" y="-398.12" font-family="Times,serif" font-size="13.60" fill="#000000">Counter_tag_increment_o</text>
<text text-anchor="end" x="162" y="-383.12" font-family="Times,serif" font-size="13.60" fill="#000000">3 (1.3%)</text>
</g>
<!-- N9&#45;&gt;N16 -->
<g id="edge16" class="edge">
<title>N9&#45;&gt;N16</title>
<path fill="none" stroke="#000000" d="M91,-472.6931C91,-456.3929 91,-438.0995 91,-423.2555"/>
<polygon fill="#000000" stroke="#000000" points="94.5001,-423.1341 91,-413.1341 87.5001,-423.1342 94.5001,-423.1341"/>
<text text-anchor="middle" x="94.5" y="-443.8" font-family="Times,serif" font-size="14.00" fill="#000000">3</text>
</g>
<!-- N13 -->
<g id="node14" class="node">
<title>N13</title>
<polygon fill="none" stroke="#000000" points="977,-416 839,-416 839,-372 977,-372 977,-416"/>
<text text-anchor="middle" x="908" y="-398.72" font-family="Times,serif" font-size="16.60" fill="#000000">ponyint_pool_free</text>
<text text-anchor="end" x="969" y="-380.72" font-family="Times,serif" font-size="16.60" fill="#000000">7 (3.0%)</text>
</g>
<!-- N10&#45;&gt;N13 -->
<g id="edge11" class="edge">
<title>N10&#45;&gt;N13</title>
<path fill="none" stroke="#000000" d="M724.4994,-478.9502C741.5467,-465.5263 761.9638,-450.883 782,-440 796.7968,-431.9629 813.2871,-424.7961 829.3338,-418.6492"/>
<polygon fill="#000000" stroke="#000000" points="830.569,-421.9241 838.7144,-415.149 828.1218,-415.3658 830.569,-421.9241"/>
<text text-anchor="middle" x="785.5" y="-443.8" font-family="Times,serif" font-size="14.00" fill="#000000">6</text>
</g>
<!-- N11 -->
<g id="node12" class="node">
<title>N11</title>
<polygon fill="none" stroke="#000000" points="381.5,-163 238.5,-163 238.5,-101 381.5,-101 381.5,-163"/>
<text text-anchor="middle" x="310" y="-146.2" font-family="Times,serif" font-size="16.00" fill="#000000">ponyint_pool_alloc</text>
<text text-anchor="end" x="373.5" y="-128.2" font-family="Times,serif" font-size="16.00" fill="#000000">6 (2.6%)</text>
<text text-anchor="end" x="373.5" y="-110.2" font-family="Times,serif" font-size="16.00" fill="#000000">of 8 (3.4%)</text>
</g>
<!-- N18 -->
<g id="node19" class="node">
<title>N18</title>
<polygon fill="none" stroke="#000000" points="340,-50 280,-50 280,0 340,0 340,-50"/>
<text text-anchor="middle" x="310" y="-35.92" font-family="Times,serif" font-size="12.60" fill="#000000">pool_get</text>
<text text-anchor="middle" x="310" y="-21.92" font-family="Times,serif" font-size="12.60" fill="#000000">(inline)</text>
<text text-anchor="end" x="332" y="-7.92" font-family="Times,serif" font-size="12.60" fill="#000000">2 (0.9%)</text>
</g>
<!-- N11&#45;&gt;N18 -->
<g id="edge19" class="edge">
<title>N11&#45;&gt;N18</title>
<path fill="none" stroke="#000000" stroke-dasharray="5,2" d="M310,-100.7635C310,-88.1085 310,-73.4308 310,-60.3831"/>
<polygon fill="#000000" stroke="#000000" points="313.5001,-60.3384 310,-50.3384 306.5001,-60.3385 313.5001,-60.3384"/>
<text text-anchor="middle" x="313.5" y="-71.8" font-family="Times,serif" font-size="14.00" fill="#000000">2</text>
</g>
<!-- N12&#45;&gt;N11 -->
<g id="edge10" class="edge">
<title>N12&#45;&gt;N11</title>
<path fill="none" stroke="#000000" d="M310,-246.905C310,-228.2414 310,-198.096 310,-173.3644"/>
<polygon fill="#000000" stroke="#000000" points="313.5001,-173.1458 310,-163.1458 306.5001,-173.1458 313.5001,-173.1458"/>
<text text-anchor="middle" x="313.5" y="-184.8" font-family="Times,serif" font-size="14.00" fill="#000000">7</text>
</g>
<!-- N15&#45;&gt;N13 -->
<g id="edge20" class="edge">
<title>N15&#45;&gt;N13</title>
<path fill="none" stroke="#000000" d="M790.8606,-651.876C801.0943,-634.2829 814.4203,-610.5735 825,-589 852.5864,-532.7474 880.1969,-465.0521 895.5938,-426.0257"/>
<polygon fill="#000000" stroke="#000000" points="899.0239,-426.8661 899.4202,-416.2787 892.508,-424.3081 899.0239,-426.8661"/>
<text text-anchor="middle" x="878.5" y="-510.8" font-family="Times,serif" font-size="14.00" fill="#000000">1</text>
</g>
<!-- N17&#45;&gt;N12 -->
<g id="edge18" class="edge">
<title>N17&#45;&gt;N12</title>
<path fill="none" stroke="#000000" d="M262.6147,-492.3142C272.109,-446.6682 293.8106,-342.3337 304.2209,-292.2842"/>
<polygon fill="#000000" stroke="#000000" points="307.711,-292.6917 306.3208,-282.1885 300.8576,-291.2662 307.711,-292.6917"/>
<text text-anchor="middle" x="292.5" y="-390.3" font-family="Times,serif" font-size="14.00" fill="#000000">2</text>
</g>
</g>
</g></svg>
